<svg width="40" height="40" viewBox="0 0 40 40" fill="none" xmlns="http://www.w3.org/2000/svg">
<rect width="40" height="40" rx="20" fill="white"/>
<path d="M12.44 12.44C12.7213 12.1591 13.1025 12.0014 13.5 12.0014C13.8975 12.0014 14.2788 12.1591 14.56 12.44L20 17.878L25.44 12.44C25.5792 12.3008 25.7445 12.1904 25.9264 12.1151C26.1083 12.0398 26.3032 12.001 26.5 12.001C26.6969 12.001 26.8918 12.0398 27.0737 12.1151C27.2556 12.1904 27.4208 12.3008 27.56 12.44C27.6992 12.5792 27.8097 12.7445 27.885 12.9264C27.9603 13.1083 27.9991 13.3032 27.9991 13.5C27.9991 13.6969 27.9603 13.8918 27.885 14.0737C27.8097 14.2556 27.6992 14.4208 27.56 14.56L22.122 20L27.56 25.44C27.8412 25.7212 27.9991 26.1025 27.9991 26.5C27.9991 26.8976 27.8412 27.2789 27.56 27.56C27.2789 27.8412 26.8976 27.9991 26.5 27.9991C26.1025 27.9991 25.7212 27.8412 25.44 27.56L20 22.122L14.56 27.56C14.2789 27.8412 13.8976 27.9991 13.5 27.9991C13.1025 27.9991 12.7212 27.8412 12.44 27.56C12.1589 27.2789 12.001 26.8976 12.001 26.5C12.001 26.1025 12.1589 25.7212 12.44 25.44L17.878 20L12.44 14.56C12.1591 14.2788 12.0014 13.8975 12.0014 13.5C12.0014 13.1025 12.1591 12.7213 12.44 12.44Z" fill="#ED4A1F"/>
</svg>
